<svg width="11" height="19" viewBox="0 0 11 19" fill="none" xmlns="http://www.w3.org/2000/svg">
<path d="M9.49766 0H1.50356C0.738496 0 0.120903 0.620363 0.120903 1.38405V17.6173C0.120903 18.3803 0.738496 19 1.50356 19H9.49766C10.2613 19 10.8803 18.3803 10.8803 17.6173V1.38405C10.8803 0.620363 10.2613 0 9.49766 0ZM3.52805 0.840536H7.47456C7.57426 0.840536 7.65527 0.989396 7.65527 1.17357C7.65527 1.35774 7.57426 1.50729 7.47456 1.50729H3.52805C3.42766 1.50729 3.34804 1.35774 3.34804 1.17357C3.34804 0.989396 3.42766 0.840536 3.52805 0.840536ZM5.50131 17.634C5.01457 17.634 4.61854 17.2379 4.61854 16.7505C4.61854 16.2631 5.01457 15.8684 5.50131 15.8684C5.98666 15.8684 6.38269 16.2631 6.38269 16.7505C6.38269 17.2379 5.98666 17.634 5.50131 17.634ZM9.84454 14.609H1.15738V2.33536H9.84454V14.609Z" fill="white"/>
</svg>
