<?xml version="1.0" encoding="utf-8"?><svg viewBox="0 0 163 52" xmlns="http://www.w3.org/2000/svg" xmlns:xlink="http://www.w3.org/1999/xlink"><style>:root>svg{display:none}:root>svg:target{display:block}</style><svg fill="none" viewBox="0 0 9 6" id="arrow-down-header" xmlns="http://www.w3.org/2000/svg"><path d="M1 1l3.5 4L8 1" stroke="#fff" stroke-linecap="round" stroke-linejoin="round"/></svg><svg fill="none" viewBox="0 0 163 52" id="arrow-form" xmlns="http://www.w3.org/2000/svg"><path fill-rule="evenodd" clip-rule="evenodd" d="M.363.727c22.972 29.387 87.039 61.012 135.194 42.707-1.761 3.687-2.674 6.406-3.643 7.616-.849 1.209 22.198-16.782 31.031-24.05 0 0-40.678-.729-41.342-.546-.725.244 4.821 2.521 9.885 4.68C93.183 45.004 39.935 29.282.363.727z" fill="#fff"/></svg><svg fill="none" viewBox="0 0 38 31" id="benefits-1" xmlns="http://www.w3.org/2000/svg"><path d="M12.07 16.635c0-.367.53-6.107.53-6.107l3.82-2.516" stroke="#344154" stroke-miterlimit="10" stroke-linejoin="round"/><path d="M18.484 13.582l-.92 3.053" stroke="#344154" stroke-miterlimit="10" stroke-linecap="round" stroke-linejoin="round"/><path d="M25.957 16.635c0-.367-.53-6.107-.53-6.107l-3.82-2.516" stroke="#344154" stroke-miterlimit="10" stroke-linejoin="round"/><path d="M21.635 8.012l-4.1 3.817.949 1.753h1.06l.948-1.753-4.1-3.817M19.544 13.582l.92 3.053M21.635 14.373h2.035M19.014 7.107c1.355 0 2.454-1.367 2.454-3.053C21.468 2.367 20.369 1 19.014 1c-1.355 0-2.454 1.367-2.454 3.054 0 1.686 1.099 3.053 2.454 3.053z" stroke="#344154" stroke-miterlimit="10" stroke-linecap="round" stroke-linejoin="round"/><path d="M25.372 10.613l2.565-1.103" stroke="#344154" stroke-miterlimit="10" stroke-linejoin="round"/><path d="M29.694 10.754L27.937 9.51" stroke="#344154" stroke-miterlimit="10" stroke-linecap="round" stroke-linejoin="round"/><path d="M34.602 16.663c0-.254-.614-6.05-.614-6.05L31.423 9.51" stroke="#344154" stroke-miterlimit="10" stroke-linejoin="round"/><path d="M31.45 9.51l-1.756 1.245v3.618M29.694 8.238c1.032 0 1.868-1.038 1.868-2.318S30.726 3.6 29.694 3.6 27.825 4.64 27.825 5.92c0 1.28.837 2.318 1.869 2.318z" stroke="#344154" stroke-miterlimit="10" stroke-linecap="round" stroke-linejoin="round"/><path d="M12.656 10.613L10.09 9.51" stroke="#344154" stroke-miterlimit="10" stroke-linejoin="round"/><path d="M8.334 10.754L10.09 9.51" stroke="#344154" stroke-miterlimit="10" stroke-linecap="round" stroke-linejoin="round"/><path d="M3.426 16.663c0-.254.614-6.05.614-6.05L6.604 9.51" stroke="#344154" stroke-miterlimit="10" stroke-linejoin="round"/><path d="M6.577 9.51l1.757 1.244v3.62M8.334 8.238c1.032 0 1.868-1.038 1.868-2.318S9.366 3.6 8.334 3.6 6.465 4.64 6.465 5.92c0 1.28.837 2.318 1.869 2.318z" stroke="#344154" stroke-miterlimit="10" stroke-linecap="round" stroke-linejoin="round"/><path d="M33.988 16.635H4.039C2.366 16.635 1 18.021 1 19.717v9.896h6.218V28.17c0-1.923 1.534-3.478 3.43-3.478h16.703c1.896 0 3.43 1.555 3.43 3.478v1.442H37v-9.896c.028-1.696-1.339-3.082-3.012-3.082z" stroke="#344154" stroke-miterlimit="10"/><path d="M10.48 22.205h17.067" stroke="#344154" stroke-miterlimit="10" stroke-linecap="round"/></svg><svg fill="none" viewBox="0 0 37 37" id="benefits-2" xmlns="http://www.w3.org/2000/svg"><path d="M23.17 23.096l-.564-2.829a2.612 2.612 0 00-.95-1.595 1.952 1.952 0 00-.92-.481l-2.374-.692c-.06-.03-.09-.03-.149-.06a.6.6 0 01-.237-.362l-.119-.963c.683-.511 1.158-1.324 1.395-2.227.416-.03.742-.511.742-1.113 0-.572-.267-1.023-.653-1.114M12.633 11.6c-.356.12-.623.542-.623 1.113 0 .602.326 1.084.742 1.114.237.903.742 1.715 1.395 2.227l-.119.963c-.03.15-.089.301-.237.361-.06.03-.09.06-.149.06l-2.374.693c-.297.06-.623.24-.92.481-.475.422-.831.963-.95 1.595l-.564 2.83M19.37 11.6s.209-4.002-3.353-4.002c-3.562 0-3.384 4.002-3.384 4.002" stroke="#344154" stroke-miterlimit="10" stroke-linecap="round"/><path d="M12.9 9.885c.149-.301.416-.512.713-.632.475-.18 1.009-.03 1.484.18.682.301 1.246.693 2.018.753.712.09 1.365 0 2.018-.331M13.82 17.408l2.197 2.288M18.213 17.408l-2.196 2.288M16.017 19.696v1.534" stroke="#344154" stroke-miterlimit="10" stroke-linecap="round"/><path d="M19.035 29.442c7.187-1.686 11.665-8.96 10.003-16.248C27.375 5.907 20.2 1.367 13.014 3.052 5.826 4.738 1.348 12.012 3.01 19.3c1.662 7.288 8.837 11.829 16.024 10.143zM16.373 32.095c8.43 0 15.286-6.952 15.286-15.5" stroke="#344154" stroke-miterlimit="10" stroke-linecap="round"/><path d="M28.364 26.196l7.124 7.223a1.816 1.816 0 010 2.528 1.756 1.756 0 01-2.493 0l-7.124-7.223" stroke="#344154" stroke-miterlimit="10" stroke-linecap="round"/></svg><svg fill="none" viewBox="0 0 36 36" id="benefits-3" xmlns="http://www.w3.org/2000/svg"><path d="M13.5 5.063h15.75v1.125H13.5V5.063zM13.5 7.313h15.75v1.125H13.5V7.312zM13.5 9.563h15.75v1.124H13.5V9.563zM13.5 11.813h15.75v1.124H13.5v-1.124z" fill="#3A4661"/><path d="M33.188 18.563H31.5V3.374a.563.563 0 00-.563-.563H29.25V1.125a.563.563 0 00-.563-.563H5.063a.563.563 0 00-.562.563v17.438H2.812c-1.24 0-2.25 1.009-2.25 2.25v14.625h1.125V20.812c0-.62.505-1.125 1.125-1.125h30.375c.62 0 1.126.505 1.126 1.125v14.625h1.124V20.813c0-1.241-1.009-2.25-2.25-2.25zm-2.813 0h-22.5V8.438h3.938c.31 0 .562-.253.562-.563V3.937h18v14.626zM8.67 7.313l2.58-2.58v2.58H8.67zM5.625 1.688h22.5v1.125H11.812a.56.56 0 00-.397.164l-4.5 4.5a.561.561 0 00-.165.398v10.688H5.625V1.688z" fill="#3A4661"/><path d="M28.125 16.313h1.125v1.125h-1.125v-1.125zM25.875 16.313H27v1.125h-1.125v-1.125zM23.625 16.313h1.125v1.125h-1.125v-1.125zM21.375 16.313H22.5v1.125h-1.125v-1.125zM21.375 14.063h7.875v1.124h-7.875v-1.124zM2.813 21.938h15.75v1.125H2.813v-1.125zM2.813 24.188h7.874v1.125H2.814v-1.125zM25.313 20.813c-4.032 0-7.313 3.28-7.313 7.312s3.28 7.313 7.313 7.313c4.032 0 7.312-3.281 7.312-7.313s-3.28-7.313-7.313-7.313zm0 13.5a6.195 6.195 0 01-6.188-6.188 6.195 6.195 0 016.188-6.188 6.195 6.195 0 016.187 6.188 6.195 6.195 0 01-6.188 6.188z" fill="#3A4661"/><path d="M28.688 27.563h-.563v-1.688a2.816 2.816 0 00-2.813-2.813 2.816 2.816 0 00-2.812 2.813v1.688h-.563a.563.563 0 00-.562.562V31.5c0 .31.252.563.563.563h6.75c.31 0 .562-.253.562-.563v-3.375a.563.563 0 00-.563-.563zm-5.063-1.688c0-.93.757-1.688 1.688-1.688.93 0 1.687.758 1.687 1.688v1.688h-3.375v-1.688zm4.5 5.063H22.5v-2.25h5.625v2.25z" fill="#3A4661"/></svg><svg fill="none" viewBox="0 0 13 13" id="copyright" xmlns="http://www.w3.org/2000/svg"><path d="M6.5 13A6.507 6.507 0 010 6.5C0 2.916 2.916 0 6.5 0S13 2.916 13 6.5 10.084 13 6.5 13zM6.5.813A5.694 5.694 0 00.813 6.5 5.694 5.694 0 006.5 12.188 5.694 5.694 0 0012.188 6.5 5.694 5.694 0 006.5.813z" fill="#fff"/><path d="M6.5 9.75A3.254 3.254 0 013.25 6.5 3.254 3.254 0 016.5 3.25c.881 0 1.705.347 2.322.976l-.58.568A2.418 2.418 0 006.5 4.062 2.44 2.44 0 004.062 6.5 2.44 2.44 0 006.5 8.938c.66 0 1.279-.26 1.741-.732l.58.568c-.616.63-1.44.976-2.321.976z" fill="#fff"/></svg><svg fill="none" viewBox="0 0 19 19" id="location" xmlns="http://www.w3.org/2000/svg"><path d="M7.589 17.019v1.924l-.465-.376a31.193 31.193 0 01-3.518-3.439C1.213 12.381 0 9.915 0 7.798v-.21C0 3.405 3.404 0 7.589 0c4.184 0 7.589 3.404 7.589 7.589v.21c0 .177-.01.358-.027.54l-1.484-1.353A6.117 6.117 0 007.59 1.48 6.115 6.115 0 001.48 7.589v.21c0 3.576 4.607 7.905 6.108 9.22zm4.553-1.064h2.221v-2.221h-2.22v2.221zM7.59 4.442a3.15 3.15 0 013.146 3.147 3.15 3.15 0 01-3.146 3.146A3.15 3.15 0 014.442 7.59 3.15 3.15 0 017.59 4.442zm0 1.481c-.919 0-1.666.747-1.666 1.666 0 .918.747 1.666 1.666 1.666.918 0 1.666-.748 1.666-1.666 0-.919-.748-1.666-1.666-1.666zm10.413 9.026l-.416-.38v2.377a2.01 2.01 0 01-2.008 2.008H10.89a2.01 2.01 0 01-2.007-2.008V14.57l-.417.38-.998-1.094 5.766-5.26L19 13.855l-.998 1.094zm-1.897-1.73l-2.87-2.62-2.872 2.62v3.727c0 .29.237.527.527.527h4.688c.29 0 .527-.236.527-.527v-3.728z" fill="#fff"/></svg><svg fill="none" viewBox="0 0 156 52" id="logo" xmlns="http://www.w3.org/2000/svg"><path d="M62.744 42.337h11.604v-2.04h-9.317V24.625h-2.287v17.712zM83.993 42.337h7.304v-2.04H88.77V26.666h2.526v-2.04h-7.304v2.04h2.492v13.633h-2.492v2.04zM101.932 26.665h1.843v13.633h-1.843v2.04h5.938c6.383 0 7.338-3.536 7.338-9.078 0-6.561-2.287-8.635-7.338-8.635h-5.938v2.04zm4.13 0h2.354c2.833 0 4.403 1.393 4.403 6.833 0 5.1-1.331 6.8-4.334 6.8h-2.423V26.665zM123.693 42.337h11.092v-2.04h-8.805v-6.289h7.269v-2.04h-7.269v-5.303h8.805v-2.04h-11.092v17.712zM146.171 32.716v-6.051h3.686c2.047 0 3.003 1.19 3.003 2.787 0 2.006-1.468 3.264-3.686 3.264h-3.003zm-2.287 9.621h2.287v-7.581h3.31l4.539 8.023 1.98-1.19-4.369-7.173c2.151-.646 3.618-2.788 3.618-4.964 0-3.433-2.355-4.827-5.324-4.827h-6.041v17.712z" fill="#fff"/><path d="M8.457 8.973L9.176.366l42.65 42.486h-9.36L8.457 8.972z" fill="#FFE66D"/><path fill-rule="evenodd" clip-rule="evenodd" d="M36.484 0H8.357v8.79l6.618 6.592v-8.79h21.51c4.365 0 7.904 3.526 7.904 7.875 0 4.35-3.539 7.875-7.905 7.875H21.961l6.619 6.592h7.904c8.021 0 14.524-6.477 14.524-14.467S44.505 0 36.484 0z" fill="#FFE66D"/><path d="M0 16.457V7.134L45.04 52h-9.359L0 16.457z" fill="#fff"/><path d="M8.355 30.842l12.058 12.011-12.056-.001-.002-12.01z" fill="#FFE66D"/></svg><svg fill="none" viewBox="0 0 19 19" id="mail" xmlns="http://www.w3.org/2000/svg"><path d="M9.5 2.227a3.9 3.9 0 00-3.896 3.896c0 1.334.672 2.561 1.799 3.283 1.15.737 2.563.815 3.875.212a.557.557 0 10-.465-1.012c-.96.442-1.984.392-2.81-.137a2.776 2.776 0 01-1.286-2.346A2.786 2.786 0 019.5 3.34a2.786 2.786 0 012.783 2.783.557.557 0 01-1.113.009v-.009c0-.92-.75-1.67-1.67-1.67-.92 0-1.67.75-1.67 1.67 0 .92.75 1.67 1.67 1.67.427 0 .818-.162 1.113-.427.296.265.686.427 1.114.427.92 0 1.67-.75 1.67-1.67A3.9 3.9 0 009.5 2.227zm.549 3.985a.557.557 0 11.004-.153.56.56 0 00-.004.153z" fill="#fff"/><path d="M17.85 7.31a.56.56 0 00-.163-.393l-2.064-2.064V.557A.557.557 0 0015.066 0H3.934a.557.557 0 00-.557.557v4.296L1.313 6.917l-.005.006a.56.56 0 00-.158.387v10.02c0 .922.75 1.67 1.67 1.67h13.36c.921 0 1.67-.75 1.67-1.67V7.31zm-2.227-.882l.883.883-.883.882V6.428zM4.49 5.084v-3.97h10.02v8.193l-3.014 3.013H7.504L4.49 9.307V5.084zM3.377 6.428v1.765l-.883-.882.883-.883zM2.264 17.099V8.654l4.222 4.223-4.222 4.222zm.787.788l4.453-4.453h3.992l4.453 4.453H3.051zm13.685-.788l-4.222-4.222 4.222-4.223V17.1z" fill="#fff"/></svg><svg fill="none" viewBox="0 0 11 19" id="phone" xmlns="http://www.w3.org/2000/svg"><path d="M9.498 0H1.504C.738 0 .12.62.12 1.384v16.233C.12 18.38.738 19 1.504 19h7.994c.763 0 1.382-.62 1.382-1.383V1.384C10.88.62 10.261 0 9.498 0zm-5.97.84h3.947c.1 0 .18.15.18.334 0 .184-.08.333-.18.333H3.528c-.1 0-.18-.15-.18-.333 0-.185.08-.333.18-.333zm1.973 16.794a.884.884 0 010-1.766.883.883 0 010 1.766zm4.344-3.025H1.157V2.335h8.688V14.61z" fill="#fff"/></svg></svg>