<?xml version="1.0" encoding="utf-8"?><svg viewBox="0 0 163 52" xmlns="http://www.w3.org/2000/svg" xmlns:xlink="http://www.w3.org/1999/xlink"><style>:root>svg{display:none}:root>svg:target{display:block}</style><svg fill="none" viewBox="0 0 9 6" id="arrow-down-header" xmlns="http://www.w3.org/2000/svg"><path d="M1 1l3.5 4L8 1" stroke="#fff" stroke-linecap="round" stroke-linejoin="round"/></svg><svg fill="none" viewBox="0 0 163 52" id="arrow-form" xmlns="http://www.w3.org/2000/svg"><path fill-rule="evenodd" clip-rule="evenodd" d="M.363.727c22.972 29.387 87.039 61.012 135.194 42.707-1.761 3.687-2.674 6.406-3.643 7.616-.849 1.209 22.198-16.782 31.031-24.05 0 0-40.678-.729-41.342-.546-.725.244 4.821 2.521 9.885 4.68C93.183 45.004 39.935 29.282.363.727z" fill="#fff"/></svg><svg fill="none" viewBox="0 0 156 52" id="logo" xmlns="http://www.w3.org/2000/svg"><path d="M62.744 42.337h11.604v-2.04h-9.317V24.625h-2.287v17.712zM83.993 42.337h7.304v-2.04H88.77V26.666h2.526v-2.04h-7.304v2.04h2.492v13.633h-2.492v2.04zM101.932 26.665h1.843v13.633h-1.843v2.04h5.938c6.383 0 7.338-3.536 7.338-9.078 0-6.561-2.287-8.635-7.338-8.635h-5.938v2.04zm4.13 0h2.354c2.833 0 4.403 1.393 4.403 6.833 0 5.1-1.331 6.8-4.334 6.8h-2.423V26.665zM123.693 42.337h11.092v-2.04h-8.805v-6.289h7.269v-2.04h-7.269v-5.303h8.805v-2.04h-11.092v17.712zM146.171 32.716v-6.051h3.686c2.047 0 3.003 1.19 3.003 2.787 0 2.006-1.468 3.264-3.686 3.264h-3.003zm-2.287 9.621h2.287v-7.581h3.31l4.539 8.023 1.98-1.19-4.369-7.173c2.151-.646 3.618-2.788 3.618-4.964 0-3.433-2.355-4.827-5.324-4.827h-6.041v17.712z" fill="#fff"/><path d="M8.457 8.973L9.176.366l42.65 42.486h-9.36L8.457 8.972z" fill="#FFE66D"/><path fill-rule="evenodd" clip-rule="evenodd" d="M36.484 0H8.357v8.79l6.618 6.592v-8.79h21.51c4.365 0 7.904 3.526 7.904 7.875 0 4.35-3.539 7.875-7.905 7.875H21.961l6.619 6.592h7.904c8.021 0 14.524-6.477 14.524-14.467S44.505 0 36.484 0z" fill="#FFE66D"/><path d="M0 16.457V7.134L45.04 52h-9.359L0 16.457z" fill="#fff"/><path d="M8.355 30.842l12.058 12.011-12.056-.001-.002-12.01z" fill="#FFE66D"/></svg></svg>